<?xml version="1.0" encoding="utf-8"?>
<!-- Generator: Adobe Illustrator 18.1.1, SVG Export Plug-In . SVG Version: 6.00 Build 0)  -->
<svg version="1.1" id="Capa_1" xmlns="http://www.w3.org/2000/svg" xmlns:xlink="http://www.w3.org/1999/xlink" x="0px" y="0px"
	 viewBox="0 0 2800 2000" enable-background="new 0 0 2800 2000" xml:space="preserve">
<circle fill="#32495C" cx="490.3" cy="1431.7" r="433.1"/>
<circle fill="#32495C" cx="1400" cy="1431.7" r="433.1"/>
<circle fill="#32495C" cx="2309.7" cy="1431.7" r="433.1"/>
<path fill="#233440" d="M1825.7,1512c-1-1.1-2.1-2.1-3.1-3.1c-1.6-1.8-3.3-3.4-5-5c-1.6-1.8-3.3-3.4-5-5c-1.6-1.8-3.3-3.4-5-5
	c-1.6-1.8-3.3-3.4-5-5c-1.6-1.8-3.3-3.4-5-5c-1.6-1.8-3.3-3.4-5-5c-1.6-1.8-3.3-3.4-5-5c-1.6-1.8-3.3-3.4-5-5c-1.6-1.8-3.3-3.4-5-5
	c-1.6-1.8-3.3-3.4-5-5c-1.6-1.8-3.3-3.4-5-5c-1.6-1.8-3.3-3.4-5-5c-1.6-1.8-3.3-3.4-5-5c-1.6-1.8-3.3-3.4-5-5c-1.6-1.8-3.3-3.4-5-5
	c-1.6-1.8-3.3-3.4-5-5c-1.6-1.8-3.3-3.4-5-5c-1.6-1.8-3.3-3.4-5-5c-1.6-1.8-3.3-3.4-5-5c-1.6-1.8-3.3-3.4-5-5c-1.6-1.8-3.3-3.4-5-5
	c-1.6-1.8-3.3-3.4-5-5c-1.6-1.8-3.3-3.4-5-5c-1.6-1.8-3.3-3.4-5-5c-1.6-1.8-3.3-3.4-5-5c-1.6-1.8-3.3-3.4-5-5c-1.6-1.8-3.3-3.4-5-5
	c-1.6-1.8-3.3-3.4-5-5c-1.6-1.8-3.3-3.4-5-5c-1.6-1.8-3.3-3.4-5-5c-1.6-1.8-3.3-3.4-5-5c-1.6-1.8-3.3-3.4-5-5c-1.6-1.8-3.3-3.4-5-5
	c-1.6-1.8-3.3-3.4-5-5c-1.6-1.8-3.3-3.4-5-5c-1.6-1.8-3.3-3.4-5-5c-1.6-1.8-3.3-3.4-5-5c-1.6-1.8-3.3-3.4-5-5c-1.6-1.8-3.3-3.4-5-5
	c-1.6-1.8-3.3-3.4-5-5c-1.6-1.8-3.3-3.4-5-5c-1.6-1.8-3.3-3.4-5-5c-1.6-1.8-3.3-3.4-5-5c-1.6-1.8-3.3-3.4-5-5c-1.6-1.8-3.3-3.4-5-5
	c-1.6-1.8-3.3-3.4-5-5c-1.6-1.8-3.3-3.4-5-5c-1.6-1.8-3.3-3.4-5-5c-1.6-1.8-3.3-3.4-5-5c-1.6-1.8-3.3-3.4-5-5c-1.6-1.8-3.3-3.4-5-5
	c-1.6-1.8-3.3-3.4-5-5c-1.6-1.8-3.3-3.4-5-5c-1.6-1.8-3.3-3.4-5-5c-1.6-1.8-3.3-3.4-5-5c-1.6-1.8-3.3-3.4-5-5c-1.6-1.8-3.3-3.4-5-5
	c-1.6-1.8-3.3-3.4-5-5c-30.8-33.3-78-34.9-91.7-35.3c-7.3,0-26.5,4.4-40.5,4.4c-15.1,0-32.4-4.4-40.5-4.4
	c-16.2,0.5-84.6,2.6-112.2,56.1c0,0-17,41-24.6,65.8c0,0-191.9,63.9-62.1,246.9c0,0,10.4,15.7,31.3,36.1c1.6,1.6,3.3,3.3,5,5
	c1.6,1.6,3.3,3.3,5,5c1.6,1.6,3.3,3.3,5,5c1.6,1.6,3.3,3.3,5,5c1.6,1.6,3.3,3.3,5,5c1.6,1.6,3.3,3.3,5,5c1.6,1.6,3.3,3.3,5,5
	c1.6,1.6,3.3,3.3,5,5c1.6,1.6,3.3,3.3,5,5c1.6,1.6,3.3,3.3,5,5c1.6,1.6,3.3,3.3,5,5c1.6,1.6,3.3,3.3,5,5c1.6,1.6,3.3,3.3,5,5
	c1.6,1.6,3.3,3.3,5,5c1.6,1.6,3.3,3.3,5,5c1.6,1.6,3.3,3.3,5,5c1.6,1.6,3.3,3.3,5,5c1.6,1.6,3.3,3.3,5,5c1.6,1.6,3.3,3.3,5,5
	c1.6,1.6,3.3,3.3,5,5c1.6,1.6,3.3,3.3,5,5c1.6,1.6,3.3,3.3,5,5c1.6,1.6,3.3,3.3,5,5c1.6,1.6,3.3,3.3,5,5c1.6,1.6,3.3,3.3,5,5
	c1.6,1.6,3.3,3.3,5,5c1.6,1.6,3.3,3.3,5,5c1.6,1.6,3.3,3.3,5,5c1.6,1.6,3.3,3.3,5,5c1.6,1.6,3.3,3.3,5,5c1.6,1.6,3.3,3.3,5,5
	c1.6,1.6,3.3,3.3,5,5c1.6,1.6,3.3,3.3,5,5c1.6,1.6,3.3,3.3,5,5c1.6,1.6,3.3,3.3,5,5c1.6,1.6,3.3,3.3,5,5c1.6,1.6,3.3,3.3,5,5
	c1.6,1.6,3.3,3.3,5,5c1.6,1.6,3.3,3.3,5,5c1.6,1.6,3.3,3.3,5,5c1.6,1.6,3.3,3.3,5,5c1.6,1.6,3.3,3.3,5,5c1.6,1.6,3.3,3.3,5,5
	c1.6,1.6,3.3,3.3,5,5c1.6,1.6,3.3,3.3,5,5c1.6,1.6,3.3,3.3,5,5c1.6,1.6,3.3,3.3,5,5c1.6,1.6,3.3,3.3,5,5c1.6,1.6,3.3,3.3,5,5
	c1.6,1.6,3.3,3.3,5,5c1.6,1.6,3.3,3.3,5,5c1.6,1.6,3.3,3.3,5,5c1.6,1.6,3.3,3.3,5,5c1.6,1.6,3.3,3.3,5,5c0.5,0.6,1.1,1.1,1.7,1.7
	C1646.5,1833.2,1791.9,1692.3,1825.7,1512z"/>
<path fill="#233440" d="M916,1512c-1-1.1-2.1-2.1-3.1-3.1c-1.6-1.8-3.3-3.4-5-5c-1.6-1.8-3.3-3.4-5-5c-1.6-1.8-3.3-3.4-5-5
	c-1.6-1.8-3.3-3.4-5-5c-1.6-1.8-3.3-3.4-5-5c-1.6-1.8-3.3-3.4-5-5c-1.6-1.8-3.3-3.4-5-5c-1.6-1.8-3.3-3.4-5-5c-1.6-1.8-3.3-3.4-5-5
	c-1.6-1.8-3.3-3.4-5-5c-1.6-1.8-3.3-3.4-5-5c-1.6-1.8-3.3-3.4-5-5c-1.6-1.8-3.3-3.4-5-5c-1.6-1.8-3.3-3.4-5-5c-1.6-1.8-3.3-3.4-5-5
	c-1.6-1.8-3.3-3.4-5-5c-1.6-1.8-3.3-3.4-5-5c-1.6-1.8-3.3-3.4-5-5c-1.6-1.8-3.3-3.4-5-5c-1.6-1.8-3.3-3.4-5-5c-1.6-1.8-3.3-3.4-5-5
	c-1.6-1.8-3.3-3.4-5-5c-1.6-1.8-3.3-3.4-5-5c-1.6-1.8-3.3-3.4-5-5c-1.6-1.8-3.3-3.4-5-5c-1.6-1.8-3.3-3.4-5-5c-1.6-1.8-3.3-3.4-5-5
	c-1.6-1.8-3.3-3.4-5-5c-1.6-1.8-3.3-3.4-5-5c-1.6-1.8-3.3-3.4-5-5c-1.6-1.8-3.3-3.4-5-5c-1.6-1.8-3.3-3.4-5-5c-1.6-1.8-3.3-3.4-5-5
	c-1.6-1.8-3.3-3.4-5-5c-1.6-1.8-3.3-3.4-5-5c-1.6-1.8-3.3-3.4-5-5c-1.6-1.8-3.3-3.4-5-5c-1.6-1.8-3.3-3.4-5-5c-1.6-1.8-3.3-3.4-5-5
	c-1.6-1.8-3.3-3.4-5-5c-1.6-1.8-3.3-3.4-5-5c-1.6-1.8-3.3-3.4-5-5c-1.6-1.8-3.3-3.4-5-5c-1.6-1.8-3.3-3.4-5-5c-1.6-1.8-3.3-3.4-5-5
	c-1.6-1.8-3.3-3.4-5-5c-1.6-1.8-3.3-3.4-5-5c-1.6-1.8-3.3-3.4-5-5c-1.6-1.8-3.3-3.4-5-5c-1.6-1.8-3.3-3.4-5-5c-1.6-1.8-3.3-3.4-5-5
	c-1.6-1.8-3.3-3.4-5-5c-1.6-1.8-3.3-3.4-5-5c-1.6-1.8-3.3-3.4-5-5c-1.6-1.8-3.3-3.4-5-5c-1.6-1.8-3.3-3.4-5-5c-1.6-1.8-3.3-3.4-5-5
	c-1.6-1.8-3.3-3.4-5-5c-30.8-33.3-78-34.9-91.7-35.3c-7.3,0-26.5,4.4-40.5,4.4c-15.1,0-32.4-4.4-40.5-4.4
	c-16.2,0.5-84.6,2.6-112.2,56.1c0,0-17,41-24.6,65.8c0,0-191.9,63.9-62.1,246.9c0,0,10.4,15.7,31.3,36.1c1.6,1.6,3.3,3.3,5,5
	c1.6,1.6,3.3,3.3,5,5c1.6,1.6,3.3,3.3,5,5c1.6,1.6,3.3,3.3,5,5c1.6,1.6,3.3,3.3,5,5c1.6,1.6,3.3,3.3,5,5c1.6,1.6,3.3,3.3,5,5
	c1.6,1.6,3.3,3.3,5,5c1.6,1.6,3.3,3.3,5,5c1.6,1.6,3.3,3.3,5,5c1.6,1.6,3.3,3.3,5,5c1.6,1.6,3.3,3.3,5,5c1.6,1.6,3.3,3.3,5,5
	c1.6,1.6,3.3,3.3,5,5c1.6,1.6,3.3,3.3,5,5c1.6,1.6,3.3,3.3,5,5c1.6,1.6,3.3,3.3,5,5c1.6,1.6,3.3,3.3,5,5c1.6,1.6,3.3,3.3,5,5
	c1.6,1.6,3.3,3.3,5,5c1.6,1.6,3.3,3.3,5,5c1.6,1.6,3.3,3.3,5,5c1.6,1.6,3.3,3.3,5,5c1.6,1.6,3.3,3.3,5,5c1.6,1.6,3.3,3.3,5,5
	c1.6,1.6,3.3,3.3,5,5c1.6,1.6,3.3,3.3,5,5c1.6,1.6,3.3,3.3,5,5c1.6,1.6,3.3,3.3,5,5c1.6,1.6,3.3,3.3,5,5c1.6,1.6,3.3,3.3,5,5
	c1.6,1.6,3.3,3.3,5,5c1.6,1.6,3.3,3.3,5,5c1.6,1.6,3.3,3.3,5,5c1.6,1.6,3.3,3.3,5,5c1.6,1.6,3.3,3.3,5,5c1.6,1.6,3.3,3.3,5,5
	c1.6,1.6,3.3,3.3,5,5c1.6,1.6,3.3,3.3,5,5c1.6,1.6,3.3,3.3,5,5c1.6,1.6,3.3,3.3,5,5c1.6,1.6,3.3,3.3,5,5c1.6,1.6,3.3,3.3,5,5
	c1.6,1.6,3.3,3.3,5,5c1.6,1.6,3.3,3.3,5,5c1.6,1.6,3.3,3.3,5,5c1.6,1.6,3.3,3.3,5,5c1.6,1.6,3.3,3.3,5,5c1.6,1.6,3.3,3.3,5,5
	c1.6,1.6,3.3,3.3,5,5c1.6,1.6,3.3,3.3,5,5c1.6,1.6,3.3,3.3,5,5c1.6,1.6,3.3,3.3,5,5c1.6,1.6,3.3,3.3,5,5c0.5,0.6,1.1,1.1,1.7,1.7
	C736.7,1833.2,882.2,1692.3,916,1512z"/>
<path fill="#233440" d="M2735.4,1512c-1-1.1-2.1-2.1-3.1-3.1c-1.6-1.8-3.3-3.4-5-5c-1.6-1.8-3.3-3.4-5-5c-1.6-1.8-3.3-3.4-5-5
	c-1.6-1.8-3.3-3.4-5-5c-1.6-1.8-3.3-3.4-5-5c-1.6-1.8-3.3-3.4-5-5c-1.6-1.8-3.3-3.4-5-5c-1.6-1.8-3.3-3.4-5-5c-1.6-1.8-3.3-3.4-5-5
	c-1.6-1.8-3.3-3.4-5-5c-1.6-1.8-3.3-3.4-5-5c-1.6-1.8-3.3-3.4-5-5c-1.6-1.8-3.3-3.4-5-5c-1.6-1.8-3.3-3.4-5-5c-1.6-1.8-3.3-3.4-5-5
	c-1.6-1.8-3.3-3.4-5-5c-1.6-1.8-3.3-3.4-5-5c-1.6-1.8-3.3-3.4-5-5c-1.6-1.8-3.3-3.4-5-5c-1.6-1.8-3.3-3.4-5-5c-1.6-1.8-3.3-3.4-5-5
	c-1.6-1.8-3.3-3.4-5-5c-1.6-1.8-3.3-3.4-5-5c-1.6-1.8-3.3-3.4-5-5c-1.6-1.8-3.3-3.4-5-5c-1.6-1.8-3.3-3.4-5-5c-1.6-1.8-3.3-3.4-5-5
	c-1.6-1.8-3.3-3.4-5-5c-1.6-1.8-3.3-3.4-5-5c-1.6-1.8-3.3-3.4-5-5c-1.6-1.8-3.3-3.4-5-5c-1.6-1.8-3.3-3.4-5-5c-1.6-1.8-3.3-3.4-5-5
	c-1.6-1.8-3.3-3.4-5-5c-1.6-1.8-3.3-3.4-5-5c-1.6-1.8-3.3-3.4-5-5c-1.6-1.8-3.3-3.4-5-5c-1.6-1.8-3.3-3.4-5-5c-1.6-1.8-3.3-3.4-5-5
	c-1.6-1.8-3.3-3.4-5-5c-1.6-1.8-3.3-3.4-5-5c-1.6-1.8-3.3-3.4-5-5c-1.6-1.8-3.3-3.4-5-5c-1.6-1.8-3.3-3.4-5-5c-1.6-1.8-3.3-3.4-5-5
	c-1.6-1.8-3.3-3.4-5-5c-1.6-1.8-3.3-3.4-5-5c-1.6-1.8-3.3-3.4-5-5c-1.6-1.8-3.3-3.4-5-5c-1.6-1.8-3.3-3.4-5-5c-1.6-1.8-3.3-3.4-5-5
	c-1.6-1.8-3.3-3.4-5-5c-1.6-1.8-3.3-3.4-5-5c-1.6-1.8-3.3-3.4-5-5c-1.6-1.8-3.3-3.4-5-5c-1.6-1.8-3.3-3.4-5-5c-1.6-1.8-3.3-3.4-5-5
	c-1.6-1.8-3.3-3.4-5-5c-30.8-33.3-78-34.9-91.7-35.3c-7.3,0-26.5,4.4-40.5,4.4c-15.1,0-32.4-4.4-40.5-4.4
	c-16.2,0.5-84.6,2.6-112.2,56.1c0,0-17,41-24.6,65.8c0,0-191.9,63.9-62.1,246.9c0,0,10.4,15.7,31.3,36.1c1.6,1.6,3.3,3.3,5,5
	c1.6,1.6,3.3,3.3,5,5c1.6,1.6,3.3,3.3,5,5c1.6,1.6,3.3,3.3,5,5c1.6,1.6,3.3,3.3,5,5c1.6,1.6,3.3,3.3,5,5c1.6,1.6,3.3,3.3,5,5
	c1.6,1.6,3.3,3.3,5,5c1.6,1.6,3.3,3.3,5,5c1.6,1.6,3.3,3.3,5,5c1.6,1.6,3.3,3.3,5,5c1.6,1.6,3.3,3.3,5,5c1.6,1.6,3.3,3.3,5,5
	c1.6,1.6,3.3,3.3,5,5c1.6,1.6,3.3,3.3,5,5c1.6,1.6,3.3,3.3,5,5c1.6,1.6,3.3,3.3,5,5c1.6,1.6,3.3,3.3,5,5c1.6,1.6,3.3,3.3,5,5
	c1.6,1.6,3.3,3.3,5,5c1.6,1.6,3.3,3.3,5,5c1.6,1.6,3.3,3.3,5,5c1.6,1.6,3.3,3.3,5,5c1.6,1.6,3.3,3.3,5,5c1.6,1.6,3.3,3.3,5,5
	c1.6,1.6,3.3,3.3,5,5c1.6,1.6,3.3,3.3,5,5c1.6,1.6,3.3,3.3,5,5c1.6,1.6,3.3,3.3,5,5c1.6,1.6,3.3,3.3,5,5c1.6,1.6,3.3,3.3,5,5
	c1.6,1.6,3.3,3.3,5,5c1.6,1.6,3.3,3.3,5,5c1.6,1.6,3.3,3.3,5,5c1.6,1.6,3.3,3.3,5,5c1.6,1.6,3.3,3.3,5,5c1.6,1.6,3.3,3.3,5,5
	c1.6,1.6,3.3,3.3,5,5c1.6,1.6,3.3,3.3,5,5c1.6,1.6,3.3,3.3,5,5c1.6,1.6,3.3,3.3,5,5c1.6,1.6,3.3,3.3,5,5c1.6,1.6,3.3,3.3,5,5
	c1.6,1.6,3.3,3.3,5,5c1.6,1.6,3.3,3.3,5,5c1.6,1.6,3.3,3.3,5,5c1.6,1.6,3.3,3.3,5,5c1.6,1.6,3.3,3.3,5,5c1.6,1.6,3.3,3.3,5,5
	c1.6,1.6,3.3,3.3,5,5c1.6,1.6,3.3,3.3,5,5c1.6,1.6,3.3,3.3,5,5c1.6,1.6,3.3,3.3,5,5c1.6,1.6,3.3,3.3,5,5c0.5,0.6,1.1,1.1,1.7,1.7
	C2556.2,1833.2,2701.6,1692.3,2735.4,1512z"/>
<circle fill="#32495C" cx="490.3" cy="520.3" r="433.1"/>
<circle fill="#32495C" cx="1400" cy="520.3" r="433.1"/>
<circle fill="#32495C" cx="2309.7" cy="520.3" r="433.1"/>
<path fill="#233440" d="M2726.9,637.2c-0.4-0.4-0.8-0.8-1.2-1.2c-0.3-0.3-0.7-0.7-1-1c-1.3-1.3-2.6-2.6-3.9-3.9
	c-0.3-0.3-0.7-0.7-1-1c-1.3-1.3-2.6-2.6-3.9-3.9c-0.3-0.3-0.7-0.7-1-1c-1.3-1.3-2.6-2.6-3.9-3.9c-0.3-0.3-0.7-0.7-1-1
	c-1.3-1.3-2.6-2.6-3.9-3.9c-0.3-0.3-0.7-0.7-1-1c-1.3-1.3-2.6-2.6-3.9-3.9c-0.3-0.3-0.7-0.7-1-1c-1.3-1.3-2.6-2.6-3.9-3.9
	c-0.3-0.3-0.7-0.7-1-1c-1.3-1.3-2.6-2.6-3.9-3.9c-0.3-0.3-0.7-0.7-1-1c-1.3-1.3-2.6-2.6-3.9-3.9c-0.3-0.3-0.7-0.7-1-1
	c-1.3-1.3-2.6-2.6-3.9-3.9c-0.3-0.3-0.7-0.7-1-1c-1.3-1.3-2.6-2.6-3.9-3.9c-0.3-0.3-0.7-0.7-1-1c-1.3-1.3-2.6-2.6-3.9-3.9
	c-0.3-0.3-0.7-0.7-1-1c-1.3-1.3-2.6-2.6-3.9-3.9c-0.3-0.3-0.7-0.7-1-1c-1.3-1.3-2.6-2.6-3.9-3.9c-0.3-0.3-0.7-0.7-1-1
	c-1.3-1.3-2.6-2.6-3.9-3.9c-0.3-0.3-0.7-0.7-1-1c-1.3-1.3-2.6-2.6-3.9-3.9c-0.3-0.3-0.7-0.7-1-1c-1.3-1.3-2.6-2.6-3.9-3.9
	c-0.3-0.3-0.7-0.7-1-1c-1.3-1.3-2.6-2.6-3.9-3.9c-0.3-0.3-0.7-0.7-1-1c-1.3-1.3-2.6-2.6-3.9-3.9c-0.3-0.3-0.7-0.7-1-1
	c-1.3-1.3-2.6-2.6-3.9-3.9c-0.3-0.3-0.7-0.7-1-1c-1.3-1.3-2.6-2.6-3.9-3.9c-0.3-0.3-0.7-0.7-1-1c-1.3-1.3-2.6-2.6-3.9-3.9
	c-0.3-0.3-0.7-0.7-1-1c-1.3-1.3-2.6-2.6-3.9-3.9c-0.3-0.3-0.7-0.7-1-1c-1.3-1.3-2.6-2.6-3.9-3.9c-0.3-0.3-0.7-0.7-1-1
	c-1.3-1.3-2.6-2.6-3.9-3.9c-0.3-0.3-0.7-0.7-1-1c-1.3-1.3-2.6-2.6-3.9-3.9c-0.3-0.3-0.7-0.7-1-1c-1.3-1.3-2.6-2.6-3.9-3.9
	c-0.3-0.3-0.7-0.7-1-1c-1.3-1.3-2.6-2.6-3.9-3.9c-0.3-0.3-0.7-0.7-1-1c-1.3-1.3-2.6-2.6-3.9-3.9c-0.3-0.3-0.7-0.7-1-1
	c-1.3-1.3-2.6-2.6-3.9-3.9c-0.3-0.3-0.7-0.7-1-1c-1.3-1.3-2.6-2.6-3.9-3.9c-0.3-0.3-0.7-0.7-1-1c-1.3-1.3-2.6-2.6-3.9-3.9
	c-0.3-0.3-0.7-0.7-1-1c-1.3-1.3-2.6-2.6-3.9-3.9c-0.3-0.3-0.7-0.7-1-1c-1.3-1.3-2.6-2.6-3.9-3.9c-0.3-0.3-0.7-0.7-1-1
	c-1.3-1.3-2.6-2.6-3.9-3.9c-0.3-0.3-0.7-0.7-1-1c-1.3-1.3-2.6-2.6-3.9-3.9c-0.3-0.3-0.7-0.7-1-1c-1.3-1.3-2.6-2.6-3.9-3.9
	c-0.3-0.3-0.7-0.7-1-1c-1.3-1.3-2.6-2.6-3.9-3.9c-0.3-0.3-0.7-0.7-1-1c-1.3-1.3-2.6-2.6-3.9-3.9c-0.3-0.3-0.7-0.7-1-1
	c-1.3-1.3-2.6-2.6-3.9-3.9c-0.3-0.3-0.7-0.7-1-1c-1.3-1.3-2.6-2.6-3.9-3.9c-0.3-0.3-0.7-0.7-1-1c-1.3-1.3-2.6-2.6-3.9-3.9
	c-0.3-0.3-0.7-0.7-1-1c-1.3-1.3-2.6-2.6-3.9-3.9c-0.3-0.3-0.7-0.7-1-1c-1.3-1.3-2.6-2.6-3.9-3.9c-0.3-0.3-0.7-0.7-1-1
	c-1.3-1.3-2.6-2.6-3.9-3.9c-0.3-0.3-0.7-0.7-1-1c-1.3-1.3-2.6-2.6-3.9-3.9c-0.3-0.3-0.7-0.7-1-1c-1.3-1.3-2.6-2.6-3.9-3.9
	c-0.3-0.3-0.7-0.7-1-1c-1.3-1.3-2.6-2.6-3.9-3.9c-0.3-0.3-0.7-0.7-1-1c-1.3-1.3-2.6-2.6-3.9-3.9c-0.3-0.3-0.7-0.7-1-1
	c-1.3-1.3-2.6-2.6-3.9-3.9c-0.3-0.3-0.7-0.7-1-1c-1.3-1.3-2.6-2.6-3.9-3.9c-0.3-0.3-0.7-0.7-1-1c-1.3-1.3-2.6-2.6-3.9-3.9
	c-0.3-0.3-0.7-0.7-1-1c-1.3-1.3-2.6-2.6-3.9-3.9c-0.3-0.3-0.7-0.7-1-1c-1.3-1.3-2.6-2.6-3.9-3.9c-0.3-0.3-0.7-0.7-1-1
	c-1.3-1.3-2.6-2.6-3.9-3.9c-0.3-0.3-0.7-0.7-1-1c-1.3-1.3-2.6-2.6-3.9-3.9c-0.3-0.3-0.7-0.7-1-1c-1.3-1.3-2.6-2.6-3.9-3.9
	c-0.3-0.3-0.7-0.7-1-1c-1.3-1.3-2.6-2.6-3.9-3.9c-0.3-0.3-0.7-0.7-1-1c-1.3-1.3-2.6-2.6-3.9-3.9c-0.3-0.3-0.7-0.7-1-1
	c-1.3-1.3-2.6-2.6-3.9-3.9c-0.3-0.3-0.7-0.7-1-1c-1.3-1.3-2.6-2.6-3.9-3.9c-0.3-0.3-0.7-0.7-1-1c-28.1-28.8-58.5-39.6-89.4-40.8l0,0
	c-47.4-1.8-95.9,17.6-143.7,25.8c-8.1-1.7-14.1-2.1-17.9-2.1l0,0c-8.5,0-20.7-0.2-30.2,4.5c-2.9,1.5-5.4,3.1-7.4,4.7
	c-1,0.7-1.9,1.4-2.8,2.2c-1.2,1-2.2,2.2-3.3,3.4c-0.2,0.2-0.3,0.4-0.3,0.4c-0.1,0.1-0.1,0.2-0.2,0.2c-2.5,3.1-4.7,6.8-6.7,11
	c-5.8,12.1-9.7,27.9-12.7,44.2c-3,16.3-5,33.2-6.5,47c-1.4,12.7-2.3,21.9-3.1,26.2c-58.9,22.5-92.2,49.7-104.7,79.4
	c-12.7,30.1-2.7,61.7,21.7,89.4c3,3.4,6.2,6.7,9.6,10c1.6,1.6,3.2,3.3,4.9,4.9c1.6,1.6,3.2,3.3,4.9,4.9c1.6,1.6,3.2,3.3,4.9,4.9
	c1.6,1.6,3.2,3.3,4.9,4.9c1.6,1.6,3.2,3.3,4.9,4.9c1.6,1.6,3.2,3.3,4.9,4.9c1.6,1.6,3.2,3.3,4.9,4.9c1.6,1.6,3.2,3.3,4.9,4.9
	c1.6,1.6,3.2,3.3,4.9,4.9c1.6,1.6,3.2,3.3,4.9,4.9c1.6,1.6,3.2,3.3,4.9,4.9c1.6,1.6,3.2,3.3,4.9,4.9c1.6,1.6,3.2,3.3,4.9,4.9
	c1.6,1.6,3.2,3.3,4.9,4.9c1.6,1.6,3.2,3.3,4.9,4.9c1.6,1.6,3.2,3.3,4.9,4.9c1.6,1.6,3.2,3.3,4.9,4.9c1.6,1.6,3.2,3.3,4.9,4.9
	c1.6,1.6,3.2,3.3,4.9,4.9c1.6,1.6,3.2,3.3,4.9,4.9c1.6,1.6,3.2,3.3,4.9,4.9c1.6,1.6,3.2,3.3,4.9,4.9c1.6,1.6,3.2,3.3,4.9,4.9
	c1.6,1.6,3.2,3.3,4.9,4.9c1.6,1.6,3.2,3.3,4.9,4.9c1.6,1.6,3.2,3.3,4.9,4.9c1.6,1.6,3.2,3.3,4.9,4.9c1.6,1.6,3.2,3.3,4.9,4.9
	c1.6,1.6,3.2,3.3,4.9,4.9c1.6,1.6,3.2,3.3,4.9,4.9c1.6,1.6,3.2,3.3,4.9,4.9c1.6,1.6,3.2,3.3,4.9,4.9c1.6,1.6,3.2,3.3,4.9,4.9
	c1.6,1.6,3.2,3.3,4.9,4.9c1.6,1.6,3.2,3.3,4.9,4.9c1.6,1.6,3.2,3.3,4.9,4.9c1.6,1.6,3.2,3.3,4.9,4.9c1.6,1.6,3.2,3.3,4.9,4.9
	c1.6,1.6,3.2,3.3,4.9,4.9c1.6,1.6,3.2,3.3,4.9,4.9c1.6,1.6,3.2,3.3,4.9,4.9c1.6,1.6,3.2,3.3,4.9,4.9c1.6,1.6,3.2,3.3,4.9,4.9
	c1.6,1.6,3.2,3.3,4.9,4.9c1.6,1.6,3.2,3.3,4.9,4.9c1.6,1.6,3.2,3.3,4.9,4.9c1.6,1.6,3.2,3.3,4.9,4.9c1.6,1.6,3.2,3.3,4.9,4.9
	c1.6,1.6,3.2,3.3,4.9,4.9c1.6,1.6,3.2,3.3,4.9,4.9c1.6,1.6,3.2,3.3,4.9,4.9c1.6,1.6,3.2,3.3,4.9,4.9c1.6,1.6,3.2,3.3,4.9,4.9
	c1.6,1.6,3.2,3.3,4.9,4.9c1.6,1.6,3.2,3.3,4.9,4.9c1.6,1.6,3.2,3.3,4.9,4.9c1.6,1.6,3.2,3.3,4.9,4.9c1.6,1.6,3.2,3.3,4.9,4.9
	c1.6,1.6,3.2,3.3,4.9,4.9c1.6,1.6,3.2,3.3,4.9,4.9c1.6,1.6,3.2,3.3,4.9,4.9c1.6,1.6,3.2,3.3,4.9,4.9c0.7,0.7,1.4,1.4,2.1,2.1
	C2524.8,940,2678.4,810.5,2726.9,637.2z"/>
<path fill="#233440" d="M1817.2,637.2c-0.4-0.4-0.8-0.8-1.2-1.2c-0.3-0.3-0.7-0.7-1-1c-1.3-1.3-2.6-2.6-3.9-3.9
	c-0.3-0.3-0.7-0.7-1-1c-1.3-1.3-2.6-2.6-3.9-3.9c-0.3-0.3-0.7-0.7-1-1c-1.3-1.3-2.6-2.6-3.9-3.9c-0.3-0.3-0.7-0.7-1-1
	c-1.3-1.3-2.6-2.6-3.9-3.9c-0.3-0.3-0.7-0.7-1-1c-1.3-1.3-2.6-2.6-3.9-3.9c-0.3-0.3-0.7-0.7-1-1c-1.3-1.3-2.6-2.6-3.9-3.9
	c-0.3-0.3-0.7-0.7-1-1c-1.3-1.3-2.6-2.6-3.9-3.9c-0.3-0.3-0.7-0.7-1-1c-1.3-1.3-2.6-2.6-3.9-3.9c-0.3-0.3-0.7-0.7-1-1
	c-1.3-1.3-2.6-2.6-3.9-3.9c-0.3-0.3-0.7-0.7-1-1c-1.3-1.3-2.6-2.6-3.9-3.9c-0.3-0.3-0.7-0.7-1-1c-1.3-1.3-2.6-2.6-3.9-3.9
	c-0.3-0.3-0.7-0.7-1-1c-1.3-1.3-2.6-2.6-3.9-3.9c-0.3-0.3-0.7-0.7-1-1c-1.3-1.3-2.6-2.6-3.9-3.9c-0.3-0.3-0.7-0.7-1-1
	c-1.3-1.3-2.6-2.6-3.9-3.9c-0.3-0.3-0.7-0.7-1-1c-1.3-1.3-2.6-2.6-3.9-3.9c-0.3-0.3-0.7-0.7-1-1c-1.3-1.3-2.6-2.6-3.9-3.9
	c-0.3-0.3-0.7-0.7-1-1c-1.3-1.3-2.6-2.6-3.9-3.9c-0.3-0.3-0.7-0.7-1-1c-1.3-1.3-2.6-2.6-3.9-3.9c-0.3-0.3-0.7-0.7-1-1
	c-1.3-1.3-2.6-2.6-3.9-3.9c-0.3-0.3-0.7-0.7-1-1c-1.3-1.3-2.6-2.6-3.9-3.9c-0.3-0.3-0.7-0.7-1-1c-1.3-1.3-2.6-2.6-3.9-3.9
	c-0.3-0.3-0.7-0.7-1-1c-1.3-1.3-2.6-2.6-3.9-3.9c-0.3-0.3-0.7-0.7-1-1c-1.3-1.3-2.6-2.6-3.9-3.9c-0.3-0.3-0.7-0.7-1-1
	c-1.3-1.3-2.6-2.6-3.9-3.9c-0.3-0.3-0.7-0.7-1-1c-1.3-1.3-2.6-2.6-3.9-3.9c-0.3-0.3-0.7-0.7-1-1c-1.3-1.3-2.6-2.6-3.9-3.9
	c-0.3-0.3-0.7-0.7-1-1c-1.3-1.3-2.6-2.6-3.9-3.9c-0.3-0.3-0.7-0.7-1-1c-1.3-1.3-2.6-2.6-3.9-3.9c-0.3-0.3-0.7-0.7-1-1
	c-1.3-1.3-2.6-2.6-3.9-3.9c-0.3-0.3-0.7-0.7-1-1c-1.3-1.3-2.6-2.6-3.9-3.9c-0.3-0.3-0.7-0.7-1-1c-1.3-1.3-2.6-2.6-3.9-3.9
	c-0.3-0.3-0.7-0.7-1-1c-1.3-1.3-2.6-2.6-3.9-3.9c-0.3-0.3-0.7-0.7-1-1c-1.3-1.3-2.6-2.6-3.9-3.9c-0.3-0.3-0.7-0.7-1-1
	c-1.3-1.3-2.6-2.6-3.9-3.9c-0.3-0.3-0.7-0.7-1-1c-1.3-1.3-2.6-2.6-3.9-3.9c-0.3-0.3-0.7-0.7-1-1c-1.3-1.3-2.6-2.6-3.9-3.9
	c-0.3-0.3-0.7-0.7-1-1c-1.3-1.3-2.6-2.6-3.9-3.9c-0.3-0.3-0.7-0.7-1-1c-1.3-1.3-2.6-2.6-3.9-3.9c-0.3-0.3-0.7-0.7-1-1
	c-1.3-1.3-2.6-2.6-3.9-3.9c-0.3-0.3-0.7-0.7-1-1c-1.3-1.3-2.6-2.6-3.9-3.9c-0.3-0.3-0.7-0.7-1-1c-1.3-1.3-2.6-2.6-3.9-3.9
	c-0.3-0.3-0.7-0.7-1-1c-1.3-1.3-2.6-2.6-3.9-3.9c-0.3-0.3-0.7-0.7-1-1c-1.3-1.3-2.6-2.6-3.9-3.9c-0.3-0.3-0.7-0.7-1-1
	c-1.3-1.3-2.6-2.6-3.9-3.9c-0.3-0.3-0.7-0.7-1-1c-1.3-1.3-2.6-2.6-3.9-3.9c-0.3-0.3-0.7-0.7-1-1c-1.3-1.3-2.6-2.6-3.9-3.9
	c-0.3-0.3-0.7-0.7-1-1c-1.3-1.3-2.6-2.6-3.9-3.9c-0.3-0.3-0.7-0.7-1-1c-1.3-1.3-2.6-2.6-3.9-3.9c-0.3-0.3-0.7-0.7-1-1
	c-1.3-1.3-2.6-2.6-3.9-3.9c-0.3-0.3-0.7-0.7-1-1c-1.3-1.3-2.6-2.6-3.9-3.9c-0.3-0.3-0.7-0.7-1-1c-1.3-1.3-2.6-2.6-3.9-3.9
	c-0.3-0.3-0.7-0.7-1-1c-1.3-1.3-2.6-2.6-3.9-3.9c-0.3-0.3-0.7-0.7-1-1c-1.3-1.3-2.6-2.6-3.9-3.9c-0.3-0.3-0.7-0.7-1-1
	c-1.3-1.3-2.6-2.6-3.9-3.9c-0.3-0.3-0.7-0.7-1-1c-1.3-1.3-2.6-2.6-3.9-3.9c-0.3-0.3-0.7-0.7-1-1c-1.3-1.3-2.6-2.6-3.9-3.9
	c-0.3-0.3-0.7-0.7-1-1c-1.3-1.3-2.6-2.6-3.9-3.9c-0.3-0.3-0.7-0.7-1-1c-1.3-1.3-2.6-2.6-3.9-3.9c-0.3-0.3-0.7-0.7-1-1
	c-1.3-1.3-2.6-2.6-3.9-3.9c-0.3-0.3-0.7-0.7-1-1c-1.3-1.3-2.6-2.6-3.9-3.9c-0.3-0.3-0.7-0.7-1-1c-28.1-28.8-58.5-39.6-89.4-40.8l0,0
	c-47.4-1.8-95.9,17.6-143.7,25.8c-8.1-1.7-14.1-2.1-17.9-2.1l0,0c-8.5,0-20.7-0.2-30.2,4.5c-2.9,1.5-5.4,3.1-7.4,4.7
	c-1,0.7-1.9,1.4-2.8,2.2c-1.2,1-2.2,2.2-3.3,3.4c-0.2,0.2-0.3,0.4-0.3,0.4c-0.1,0.1-0.1,0.2-0.2,0.2c-2.5,3.1-4.7,6.8-6.7,11
	c-5.8,12.1-9.7,27.9-12.7,44.2c-3,16.3-5,33.2-6.5,47c-1.4,12.7-2.3,21.9-3.1,26.2c-58.9,22.5-92.2,49.7-104.7,79.4
	c-12.7,30.1-2.7,61.7,21.7,89.4c3,3.4,6.2,6.7,9.6,10c1.6,1.6,3.2,3.3,4.9,4.9c1.6,1.6,3.2,3.3,4.9,4.9c1.6,1.6,3.2,3.3,4.9,4.9
	c1.6,1.6,3.2,3.3,4.9,4.9c1.6,1.6,3.2,3.3,4.9,4.9c1.6,1.6,3.2,3.3,4.9,4.9c1.6,1.6,3.2,3.3,4.9,4.9c1.6,1.6,3.2,3.3,4.9,4.9
	c1.6,1.6,3.2,3.3,4.9,4.9c1.6,1.6,3.2,3.3,4.9,4.9c1.6,1.6,3.2,3.3,4.9,4.9c1.6,1.6,3.2,3.3,4.9,4.9c1.6,1.6,3.2,3.3,4.9,4.9
	c1.6,1.6,3.2,3.3,4.9,4.9c1.6,1.6,3.2,3.3,4.9,4.9c1.6,1.6,3.2,3.3,4.9,4.9c1.6,1.6,3.2,3.3,4.9,4.9c1.6,1.6,3.2,3.3,4.9,4.9
	c1.6,1.6,3.2,3.3,4.9,4.9c1.6,1.6,3.2,3.3,4.9,4.9c1.6,1.6,3.2,3.3,4.9,4.9c1.6,1.6,3.2,3.3,4.9,4.9c1.6,1.6,3.2,3.3,4.9,4.9
	c1.6,1.6,3.2,3.3,4.9,4.9c1.6,1.6,3.2,3.3,4.9,4.9c1.6,1.6,3.2,3.3,4.9,4.9c1.6,1.6,3.2,3.3,4.9,4.9c1.6,1.6,3.2,3.3,4.9,4.9
	c1.6,1.6,3.2,3.3,4.9,4.9c1.6,1.6,3.2,3.3,4.9,4.9c1.6,1.6,3.2,3.3,4.9,4.9c1.6,1.6,3.2,3.3,4.9,4.9c1.6,1.6,3.2,3.3,4.9,4.9
	c1.6,1.6,3.2,3.3,4.9,4.9c1.6,1.6,3.2,3.3,4.9,4.9c1.6,1.6,3.2,3.3,4.9,4.9c1.6,1.6,3.2,3.3,4.9,4.9c1.6,1.6,3.2,3.3,4.9,4.9
	c1.6,1.6,3.2,3.3,4.9,4.9c1.6,1.6,3.2,3.3,4.9,4.9c1.6,1.6,3.2,3.3,4.9,4.9c1.6,1.6,3.2,3.3,4.9,4.9c1.6,1.6,3.2,3.3,4.9,4.9
	c1.6,1.6,3.2,3.3,4.9,4.9c1.6,1.6,3.2,3.3,4.9,4.9c1.6,1.6,3.2,3.3,4.9,4.9c1.6,1.6,3.2,3.3,4.9,4.9c1.6,1.6,3.2,3.3,4.9,4.9
	c1.6,1.6,3.2,3.3,4.9,4.9c1.6,1.6,3.2,3.3,4.9,4.9c1.6,1.6,3.2,3.3,4.9,4.9c1.6,1.6,3.2,3.3,4.9,4.9c1.6,1.6,3.2,3.3,4.9,4.9
	c1.6,1.6,3.2,3.3,4.9,4.9c1.6,1.6,3.2,3.3,4.9,4.9c1.6,1.6,3.2,3.3,4.9,4.9c1.6,1.6,3.2,3.3,4.9,4.9c1.6,1.6,3.2,3.3,4.9,4.9
	c1.6,1.6,3.2,3.3,4.9,4.9c1.6,1.6,3.2,3.3,4.9,4.9c1.6,1.6,3.2,3.3,4.9,4.9c1.6,1.6,3.2,3.3,4.9,4.9c0.7,0.7,1.4,1.4,2.1,2.1
	C1615.1,940,1768.7,810.5,1817.2,637.2z"/>
<path fill="#233440" d="M907.5,637.2c-0.4-0.4-0.8-0.8-1.2-1.2c-0.3-0.3-0.7-0.7-1-1c-1.3-1.3-2.6-2.6-3.9-3.9c-0.3-0.3-0.7-0.7-1-1
	c-1.3-1.3-2.6-2.6-3.9-3.9c-0.3-0.3-0.7-0.7-1-1c-1.3-1.3-2.6-2.6-3.9-3.9c-0.3-0.3-0.7-0.7-1-1c-1.3-1.3-2.6-2.6-3.9-3.9
	c-0.3-0.3-0.7-0.7-1-1c-1.3-1.3-2.6-2.6-3.9-3.9c-0.3-0.3-0.7-0.7-1-1c-1.3-1.3-2.6-2.6-3.9-3.9c-0.3-0.3-0.7-0.7-1-1
	c-1.3-1.3-2.6-2.6-3.9-3.9c-0.3-0.3-0.7-0.7-1-1c-1.3-1.3-2.6-2.6-3.9-3.9c-0.3-0.3-0.7-0.7-1-1c-1.3-1.3-2.6-2.6-3.9-3.9
	c-0.3-0.3-0.7-0.7-1-1c-1.3-1.3-2.6-2.6-3.9-3.9c-0.3-0.3-0.7-0.7-1-1c-1.3-1.3-2.6-2.6-3.9-3.9c-0.3-0.3-0.7-0.7-1-1
	c-1.3-1.3-2.6-2.6-3.9-3.9c-0.3-0.3-0.7-0.7-1-1c-1.3-1.3-2.6-2.6-3.9-3.9c-0.3-0.3-0.7-0.7-1-1c-1.3-1.3-2.6-2.6-3.9-3.9
	c-0.3-0.3-0.7-0.7-1-1c-1.3-1.3-2.6-2.6-3.9-3.9c-0.3-0.3-0.7-0.7-1-1c-1.3-1.3-2.6-2.6-3.9-3.9c-0.3-0.3-0.7-0.7-1-1
	c-1.3-1.3-2.6-2.6-3.9-3.9c-0.3-0.3-0.7-0.7-1-1c-1.3-1.3-2.6-2.6-3.9-3.9c-0.3-0.3-0.7-0.7-1-1c-1.3-1.3-2.6-2.6-3.9-3.9
	c-0.3-0.3-0.7-0.7-1-1c-1.3-1.3-2.6-2.6-3.9-3.9c-0.3-0.3-0.7-0.7-1-1c-1.3-1.3-2.6-2.6-3.9-3.9c-0.3-0.3-0.7-0.7-1-1
	c-1.3-1.3-2.6-2.6-3.9-3.9c-0.3-0.3-0.7-0.7-1-1c-1.3-1.3-2.6-2.6-3.9-3.9c-0.3-0.3-0.7-0.7-1-1c-1.3-1.3-2.6-2.6-3.9-3.9
	c-0.3-0.3-0.7-0.7-1-1c-1.3-1.3-2.6-2.6-3.9-3.9c-0.3-0.3-0.7-0.7-1-1c-1.3-1.3-2.6-2.6-3.9-3.9c-0.3-0.3-0.7-0.7-1-1
	c-1.3-1.3-2.6-2.6-3.9-3.9c-0.3-0.3-0.7-0.7-1-1c-1.3-1.3-2.6-2.6-3.9-3.9c-0.3-0.3-0.7-0.7-1-1c-1.3-1.3-2.6-2.6-3.9-3.9
	c-0.3-0.3-0.7-0.7-1-1c-1.3-1.3-2.6-2.6-3.9-3.9c-0.3-0.3-0.7-0.7-1-1c-1.3-1.3-2.6-2.6-3.9-3.9c-0.3-0.3-0.7-0.7-1-1
	c-1.3-1.3-2.6-2.6-3.9-3.9c-0.3-0.3-0.7-0.7-1-1c-1.3-1.3-2.6-2.6-3.9-3.9c-0.3-0.3-0.7-0.7-1-1c-1.3-1.3-2.6-2.6-3.9-3.9
	c-0.3-0.3-0.7-0.7-1-1c-1.3-1.3-2.6-2.6-3.9-3.9c-0.3-0.3-0.7-0.7-1-1c-1.3-1.3-2.6-2.6-3.9-3.9c-0.3-0.3-0.7-0.7-1-1
	c-1.3-1.3-2.6-2.6-3.9-3.9c-0.3-0.3-0.7-0.7-1-1c-1.3-1.3-2.6-2.6-3.9-3.9c-0.3-0.3-0.7-0.7-1-1c-1.3-1.3-2.6-2.6-3.9-3.9
	c-0.3-0.3-0.7-0.7-1-1c-1.3-1.3-2.6-2.6-3.9-3.9c-0.3-0.3-0.7-0.7-1-1c-1.3-1.3-2.6-2.6-3.9-3.9c-0.3-0.3-0.7-0.7-1-1
	c-1.3-1.3-2.6-2.6-3.9-3.9c-0.3-0.3-0.7-0.7-1-1c-1.3-1.3-2.6-2.6-3.9-3.9c-0.3-0.3-0.7-0.7-1-1c-1.3-1.3-2.6-2.6-3.9-3.9
	c-0.3-0.3-0.7-0.7-1-1c-1.3-1.3-2.6-2.6-3.9-3.9c-0.3-0.3-0.7-0.7-1-1c-1.3-1.3-2.6-2.6-3.9-3.9c-0.3-0.3-0.7-0.7-1-1
	c-1.3-1.3-2.6-2.6-3.9-3.9c-0.3-0.3-0.7-0.7-1-1c-1.3-1.3-2.6-2.6-3.9-3.9c-0.3-0.3-0.7-0.7-1-1c-1.3-1.3-2.6-2.6-3.9-3.9
	c-0.3-0.3-0.7-0.7-1-1c-1.3-1.3-2.6-2.6-3.9-3.9c-0.3-0.3-0.7-0.7-1-1c-1.3-1.3-2.6-2.6-3.9-3.9c-0.3-0.3-0.7-0.7-1-1
	c-1.3-1.3-2.6-2.6-3.9-3.9c-0.3-0.3-0.7-0.7-1-1c-1.3-1.3-2.6-2.6-3.9-3.9c-0.3-0.3-0.7-0.7-1-1c-1.3-1.3-2.6-2.6-3.9-3.9
	c-0.3-0.3-0.7-0.7-1-1c-1.3-1.3-2.6-2.6-3.9-3.9c-0.3-0.3-0.7-0.7-1-1c-1.3-1.3-2.6-2.6-3.9-3.9c-0.3-0.3-0.7-0.7-1-1
	c-1.3-1.3-2.6-2.6-3.9-3.9c-0.3-0.3-0.7-0.7-1-1c-1.3-1.3-2.6-2.6-3.9-3.9c-0.3-0.3-0.7-0.7-1-1c-1.3-1.3-2.6-2.6-3.9-3.9
	c-0.3-0.3-0.7-0.7-1-1c-1.3-1.3-2.6-2.6-3.9-3.9c-0.3-0.3-0.7-0.7-1-1c-28.1-28.8-58.5-39.6-89.4-40.8l0,0
	c-47.4-1.8-95.9,17.6-143.7,25.8c-8.1-1.7-14.1-2.1-17.9-2.1l0,0c-8.5,0-20.7-0.2-30.2,4.5c-2.9,1.5-5.4,3.1-7.4,4.7
	c-1,0.7-1.9,1.4-2.8,2.2c-1.2,1-2.2,2.2-3.3,3.4c-0.2,0.2-0.3,0.4-0.3,0.4c-0.1,0.1-0.1,0.2-0.2,0.2c-2.5,3.1-4.7,6.8-6.7,11
	c-5.8,12.1-9.7,27.9-12.7,44.2c-3,16.3-5,33.2-6.5,47c-1.4,12.7-2.3,21.9-3.1,26.2c-58.9,22.5-92.2,49.7-104.7,79.4
	c-12.7,30.1-2.7,61.7,21.7,89.4c3,3.4,6.2,6.7,9.6,10c1.6,1.6,3.2,3.3,4.9,4.9c1.6,1.6,3.2,3.3,4.9,4.9c1.6,1.6,3.2,3.3,4.9,4.9
	c1.6,1.6,3.2,3.3,4.9,4.9c1.6,1.6,3.2,3.3,4.9,4.9c1.6,1.6,3.2,3.3,4.9,4.9c1.6,1.6,3.2,3.3,4.9,4.9c1.6,1.6,3.2,3.3,4.9,4.9
	c1.6,1.6,3.2,3.3,4.9,4.9c1.6,1.6,3.2,3.3,4.9,4.9c1.6,1.6,3.2,3.3,4.9,4.9c1.6,1.6,3.2,3.3,4.9,4.9c1.6,1.6,3.2,3.3,4.9,4.9
	c1.6,1.6,3.2,3.3,4.9,4.9c1.6,1.6,3.2,3.3,4.9,4.9c1.6,1.6,3.2,3.3,4.9,4.9c1.6,1.6,3.2,3.3,4.9,4.9c1.6,1.6,3.2,3.3,4.9,4.9
	c1.6,1.6,3.2,3.3,4.9,4.9c1.6,1.6,3.2,3.3,4.9,4.9c1.6,1.6,3.2,3.3,4.9,4.9c1.6,1.6,3.2,3.3,4.9,4.9c1.6,1.6,3.2,3.3,4.9,4.9
	c1.6,1.6,3.2,3.3,4.9,4.9c1.6,1.6,3.2,3.3,4.9,4.9c1.6,1.6,3.2,3.3,4.9,4.9c1.6,1.6,3.2,3.3,4.9,4.9c1.6,1.6,3.2,3.3,4.9,4.9
	c1.6,1.6,3.2,3.3,4.9,4.9c1.6,1.6,3.2,3.3,4.9,4.9c1.6,1.6,3.2,3.3,4.9,4.9c1.6,1.6,3.2,3.3,4.9,4.9c1.6,1.6,3.2,3.3,4.9,4.9
	c1.6,1.6,3.2,3.3,4.9,4.9c1.6,1.6,3.2,3.3,4.9,4.9c1.6,1.6,3.2,3.3,4.9,4.9c1.6,1.6,3.2,3.3,4.9,4.9c1.6,1.6,3.2,3.3,4.9,4.9
	c1.6,1.6,3.2,3.3,4.9,4.9c1.6,1.6,3.2,3.3,4.9,4.9c1.6,1.6,3.2,3.3,4.9,4.9c1.6,1.6,3.2,3.3,4.9,4.9c1.6,1.6,3.2,3.3,4.9,4.9
	c1.6,1.6,3.2,3.3,4.9,4.9c1.6,1.6,3.2,3.3,4.9,4.9c1.6,1.6,3.2,3.3,4.9,4.9c1.6,1.6,3.2,3.3,4.9,4.9c1.6,1.6,3.2,3.3,4.9,4.9
	c1.6,1.6,3.2,3.3,4.9,4.9c1.6,1.6,3.2,3.3,4.9,4.9c1.6,1.6,3.2,3.3,4.9,4.9c1.6,1.6,3.2,3.3,4.9,4.9c1.6,1.6,3.2,3.3,4.9,4.9
	c1.6,1.6,3.2,3.3,4.9,4.9c1.6,1.6,3.2,3.3,4.9,4.9c1.6,1.6,3.2,3.3,4.9,4.9c1.6,1.6,3.2,3.3,4.9,4.9c1.6,1.6,3.2,3.3,4.9,4.9
	c1.6,1.6,3.2,3.3,4.9,4.9c1.6,1.6,3.2,3.3,4.9,4.9c1.6,1.6,3.2,3.3,4.9,4.9c1.6,1.6,3.2,3.3,4.9,4.9c0.7,0.7,1.4,1.4,2.1,2.1
	C705.4,940,859,810.5,907.5,637.2z"/>
<g>
	<g>
		<g>
			<path fill="#32495C" d="M1438.5,1908.5c1,0,1.9,0.9,1.9,0.9l-16.6,35.5c-1.8,0-6.2,0.3-7.3,0.3c-1,0-1.9-0.9-1.9-0.9l-5.7-35.5
				c3.4,0,7.8-0.3,9-0.3c1,0,1.9,0.9,1.9,0.9l1.7,17.4c0.1,1.5,0.2,3.6,0.1,5.8c0.6-2.4,1.2-4.6,1.8-6.2l6.9-17.6
				C1433.5,1908.7,1437.3,1908.5,1438.5,1908.5L1438.5,1908.5z"/>
		</g>
		<g>
			<path fill="#32495C" d="M1455.6,1926c0,3.9-2.2,6.4-7.5,7.5l-5.6,1.2c0.4,2.4,2,3.6,4.5,3.6c3.1,0,5.2-2.3,5.2-2.3
				s1.6,0.9,1.6,2.7c0,3.2-4.9,6.7-10.7,6.7c-5.8,0-9.6-3.7-9.6-9.9c0-7.2,5.1-16.9,14.1-16.9
				C1452.5,1918.5,1455.6,1921.5,1455.6,1926L1455.6,1926z M1446,1929.7c1.2-0.4,1.6-1.4,1.6-2.5c0-1.1-0.3-2.7-1.6-2.7
				c-2.2,0-3.2,3.6-3.6,6.3L1446,1929.7z"/>
		</g>
		<g>
			<path fill="#32495C" d="M1470.8,1918.5c4.6,0,8,2.4,8,5.6c0,3.9-4.8,5.4-4.8,5.4s-1.4-4.3-4.6-4.3c-2.2,0-3.4,2.2-3.4,6.9
				c0,4.3,1.1,6.2,3.9,6.2c2.9,0,4.6-1.9,4.6-1.9s1.6,0.9,1.6,2.6c0,3.1-4.7,6.4-10.3,6.4c-5.9,0-9.5-3.7-9.5-9.8
				C1456.4,1928.3,1461.6,1918.5,1470.8,1918.5L1470.8,1918.5z"/>
		</g>
		<g>
			<path fill="#32495C" d="M1492.7,1912.8c1.1,0,1.8,0.8,1.8,0.8l-0.9,5.4h5.7l-1.3,4.1c-0.4,1.3-1.1,2.1-2.4,2.1h-3l-1.7,10.5
				c-0.3,1.7,0.1,2.5,1.3,2.5c1.1,0,2.1-0.6,2.1-0.6s1.6,0.9,1.6,2.6c0,2.6-3.7,5.1-8.3,5.1c-4.9,0-6.9-3-6.1-8.3l1.9-11.8h-3.1
				l1.4-4.3c0.3-1.1,1.3-1.9,2.4-1.9h1.5l1.8-5C1489.6,1913.5,1491.7,1912.8,1492.7,1912.8L1492.7,1912.8z"/>
		</g>
		<g>
			<path fill="#32495C" d="M1520.6,1926c0,3.9-2.2,6.4-7.5,7.5l-5.6,1.2c0.4,2.4,2,3.6,4.5,3.6c3.1,0,5.2-2.3,5.2-2.3
				s1.6,0.9,1.6,2.7c0,3.2-4.9,6.7-10.7,6.7c-5.8,0-9.6-3.7-9.6-9.9c0-7.2,5.1-16.9,14.1-16.9
				C1517.5,1918.5,1520.6,1921.5,1520.6,1926L1520.6,1926z M1511,1929.7c1.2-0.4,1.6-1.4,1.6-2.5c0-1.1-0.3-2.7-1.6-2.7
				c-2.2,0-3.2,3.6-3.6,6.3L1511,1929.7z"/>
		</g>
		<g>
			<path fill="#32495C" d="M1543.6,1926c0,3.9-2.2,6.4-7.5,7.5l-5.6,1.2c0.4,2.4,2,3.6,4.5,3.6c3.1,0,5.2-2.3,5.2-2.3
				s1.6,0.9,1.6,2.7c0,3.2-4.9,6.7-10.7,6.7c-5.8,0-9.6-3.7-9.6-9.9c0-7.2,5.1-16.9,14.1-16.9
				C1540.5,1918.5,1543.6,1921.5,1543.6,1926L1543.6,1926z M1534,1929.7c1.2-0.4,1.6-1.4,1.6-2.5c0-1.1-0.3-2.7-1.6-2.7
				c-2.2,0-3.2,3.6-3.6,6.3L1534,1929.7z"/>
		</g>
		<g>
			<path fill="#32495C" d="M1562.4,1935.6c0,0,1.9,1.8,1.9,4.8c0,4-3.3,5-6.2,5c-3.7,0-6.3-1.7-9.1-2.7c-0.8,0.9-1.5,1.8-2.3,2.7
				c0,0-4.1-0.1-4.1-2.9c0-3.4,5.7-9.3,11.8-15.9c-0.7-0.1-1.4-0.2-2-0.2c-3.5,0-4.8,1.7-4.8,1.7s-1.8-2.1-1.6-4.8
				c0.2-3.7,3.7-4.8,6.5-4.8c3,0,5.1,1.1,7.3,2.1l1.7-2.1c0,0,4.2,0.1,4.2,2.9c0,3.3-5.5,9.1-11.5,15.5c1.3,0.4,2.4,0.6,3.6,0.6
				C1560.9,1937.6,1562.4,1935.6,1562.4,1935.6L1562.4,1935.6z"/>
		</g>
		<g>
			<path fill="#32495C" d="M1589.1,1943.1c-1.5,9-7.7,13.6-15.5,13.6c-5,0-8.7-2.6-8.7-5.7c0-2,1.7-2.9,1.7-2.9s1.7,1.5,5.1,1.5
				c3.1,0,7.4-1.3,8.2-6.1l0.6-3.7c-2.1,3-4.9,5.5-8.5,5.5c-4,0-5.7-3.3-4.7-9.9l1.1-7.2c0.7-4.4,0.9-8,0.9-8
				c2.8-0.5,6.6-1.8,7.9-1.8c1,0,1.9,0.8,1.9,0.8l-1.4,9l-1.3,8.3c-0.1,0.8,0,1.2,0.7,1.2c3.3,0,5.2-9.5,5.2-9.5
				c0.7-4.4,0.9-8,0.9-8c2.8-0.5,6.6-1.8,7.9-1.8c1,0,2,0.8,2,0.8l-1.4,9L1589.1,1943.1z"/>
		</g>
	</g>
	<g>
		<path fill="#32495C" d="M1207.1,1920h8.9c2,0,3.5,0.2,4.6,0.5c1.4,0.4,2.6,1.2,3.6,2.2c1,1.1,1.8,2.4,2.3,3.9
			c0.5,1.5,0.8,3.4,0.8,5.7c0,2-0.2,3.7-0.7,5.1c-0.6,1.7-1.5,3.2-2.6,4.2c-0.8,0.8-2,1.5-3.4,1.9c-1.1,0.3-2.5,0.5-4.3,0.5h-9.1
			V1920z M1212,1924.1v15.9h3.6c1.4,0,2.3-0.1,2.9-0.2c0.8-0.2,1.4-0.5,2-1c0.5-0.5,0.9-1.2,1.3-2.3c0.3-1.1,0.5-2.5,0.5-4.4
			s-0.2-3.3-0.5-4.3c-0.3-1-0.8-1.8-1.4-2.3c-0.6-0.6-1.3-0.9-2.2-1.1c-0.7-0.2-2-0.2-4-0.2H1212z"/>
		<path fill="#32495C" d="M1240.8,1938.5l4.6,0.8c-0.6,1.7-1.5,3-2.8,3.8c-1.3,0.9-2.9,1.3-4.8,1.3c-3,0-5.3-1-6.7-3
			c-1.1-1.6-1.7-3.6-1.7-6c0-2.9,0.8-5.1,2.3-6.8c1.5-1.6,3.4-2.5,5.7-2.5c2.6,0,4.6,0.9,6.1,2.6c1.5,1.7,2.2,4.3,2.1,7.9h-11.5
			c0,1.4,0.4,2.4,1.1,3.2c0.7,0.8,1.6,1.1,2.7,1.1c0.7,0,1.3-0.2,1.8-0.6C1240.1,1940,1240.5,1939.4,1240.8,1938.5z M1241,1933.8
			c0-1.3-0.4-2.3-1-3c-0.7-0.7-1.5-1-2.4-1c-1,0-1.8,0.4-2.5,1.1c-0.7,0.7-1,1.7-1,3H1241z"/>
		<path fill="#32495C" d="M1247.1,1939.1l4.6-0.7c0.2,0.9,0.6,1.6,1.2,2c0.6,0.5,1.4,0.7,2.5,0.7c1.2,0,2.1-0.2,2.7-0.7
			c0.4-0.3,0.6-0.7,0.6-1.2c0-0.3-0.1-0.6-0.3-0.9c-0.2-0.2-0.7-0.4-1.5-0.6c-3.7-0.8-6.1-1.6-7.1-2.2c-1.4-0.9-2.1-2.2-2.1-3.9
			c0-1.5,0.6-2.8,1.8-3.8c1.2-1,3-1.5,5.5-1.5c2.4,0,4.2,0.4,5.3,1.2c1.2,0.8,2,1.9,2.4,3.4l-4.3,0.8c-0.2-0.7-0.5-1.2-1.1-1.6
			c-0.5-0.4-1.3-0.5-2.2-0.5c-1.2,0-2.1,0.2-2.6,0.5c-0.3,0.2-0.5,0.6-0.5,0.9c0,0.3,0.2,0.6,0.5,0.8c0.4,0.3,1.9,0.7,4.3,1.3
			c2.5,0.6,4.2,1.2,5.1,2c1,0.8,1.4,2,1.4,3.4c0,1.6-0.7,3-2,4.1c-1.3,1.1-3.3,1.7-5.9,1.7c-2.4,0-4.3-0.5-5.6-1.4
			C1248.4,1942,1247.5,1940.7,1247.1,1939.1z"/>
		<path fill="#32495C" d="M1266.7,1924.3v-4.3h4.6v4.3H1266.7z M1266.7,1944v-17.4h4.6v17.4H1266.7z"/>
		<path fill="#32495C" d="M1274.9,1945.2l5.3,0.6c0.1,0.6,0.3,1,0.6,1.3c0.4,0.3,1.1,0.5,2.1,0.5c1.2,0,2.1-0.2,2.7-0.5
			c0.4-0.2,0.7-0.6,0.9-1.2c0.1-0.4,0.2-1.1,0.2-2.1v-2.5c-1.4,1.9-3.1,2.8-5.2,2.8c-2.3,0-4.2-1-5.6-3c-1.1-1.6-1.6-3.5-1.6-5.8
			c0-2.9,0.7-5.1,2.1-6.7c1.4-1.5,3.2-2.3,5.2-2.3c2.2,0,3.9,0.9,5.3,2.8v-2.4h4.3v15.6c0,2.1-0.2,3.6-0.5,4.6
			c-0.3,1-0.8,1.8-1.4,2.4c-0.6,0.6-1.4,1-2.5,1.4c-1,0.3-2.3,0.5-3.9,0.5c-3,0-5-0.5-6.3-1.5c-1.2-1-1.9-2.3-1.9-3.8
			C1274.9,1945.6,1274.9,1945.4,1274.9,1945.2z M1279,1935c0,1.8,0.4,3.2,1.1,4.1c0.7,0.9,1.6,1.3,2.6,1.3c1.1,0,2.1-0.4,2.9-1.3
			c0.8-0.9,1.2-2.2,1.2-3.9c0-1.8-0.4-3.1-1.1-4c-0.7-0.9-1.7-1.3-2.8-1.3c-1.1,0-2,0.4-2.7,1.3
			C1279.4,1931.9,1279,1933.2,1279,1935z"/>
		<path fill="#32495C" d="M1311,1944h-4.6v-8.9c0-1.9-0.1-3.1-0.3-3.6c-0.2-0.6-0.5-1-1-1.3c-0.4-0.3-1-0.5-1.6-0.5
			c-0.8,0-1.5,0.2-2.1,0.7c-0.6,0.4-1.1,1-1.3,1.7c-0.2,0.7-0.4,2.1-0.4,4v7.9h-4.6v-17.4h4.3v2.6c1.5-2,3.4-3,5.7-3
			c1,0,1.9,0.2,2.8,0.6c0.8,0.4,1.5,0.8,1.9,1.4c0.4,0.6,0.7,1.2,0.9,1.9c0.2,0.7,0.3,1.8,0.3,3.1V1944z"/>
		<path fill="#32495C" d="M1325.1,1938.5l4.6,0.8c-0.6,1.7-1.5,3-2.8,3.8c-1.3,0.9-2.9,1.3-4.8,1.3c-3,0-5.3-1-6.7-3
			c-1.1-1.6-1.7-3.6-1.7-6c0-2.9,0.8-5.1,2.3-6.8c1.5-1.6,3.4-2.5,5.7-2.5c2.6,0,4.6,0.9,6.1,2.6c1.5,1.7,2.2,4.3,2.1,7.9h-11.5
			c0,1.4,0.4,2.4,1.1,3.2c0.7,0.8,1.6,1.1,2.7,1.1c0.7,0,1.3-0.2,1.8-0.6C1324.5,1940,1324.9,1939.4,1325.1,1938.5z M1325.4,1933.8
			c0-1.3-0.4-2.3-1-3c-0.7-0.7-1.5-1-2.4-1c-1,0-1.8,0.4-2.5,1.1c-0.7,0.7-1,1.7-1,3H1325.4z"/>
		<path fill="#32495C" d="M1349,1944h-4.3v-2.6c-0.7,1-1.5,1.7-2.5,2.2c-1,0.5-1.9,0.7-2.9,0.7c-2,0-3.7-0.8-5.1-2.4
			c-1.4-1.6-2.1-3.9-2.1-6.7c0-3,0.7-5.2,2.1-6.7c1.4-1.5,3.1-2.3,5.3-2.3c1.9,0,3.6,0.8,5.1,2.4v-8.7h4.6V1944z M1336.7,1935
			c0,1.9,0.3,3.2,0.8,4c0.7,1.2,1.8,1.8,3.1,1.8c1.1,0,2-0.5,2.7-1.4c0.7-0.9,1.1-2.3,1.1-4c0-2-0.4-3.4-1.1-4.3
			c-0.7-0.9-1.6-1.3-2.8-1.3c-1.1,0-2,0.4-2.7,1.3C1337.1,1931.9,1336.7,1933.2,1336.7,1935z"/>
		<path fill="#32495C" d="M1361.4,1944v-24h4.6v8.7c1.4-1.6,3.1-2.4,5.1-2.4c2.1,0,3.9,0.8,5.3,2.3c1.4,1.5,2.1,3.7,2.1,6.6
			c0,3-0.7,5.3-2.1,6.9c-1.4,1.6-3.1,2.4-5.2,2.4c-1,0-2-0.2-2.9-0.7c-1-0.5-1.8-1.2-2.5-2.2v2.6H1361.4z M1365.9,1935
			c0,1.8,0.3,3.1,0.9,4c0.8,1.2,1.9,1.8,3.2,1.8c1,0,1.9-0.4,2.6-1.3c0.7-0.9,1.1-2.2,1.1-4.1c0-2-0.4-3.4-1.1-4.3
			c-0.7-0.9-1.6-1.3-2.8-1.3c-1.1,0-2,0.4-2.8,1.3C1366.3,1931.9,1365.9,1933.2,1365.9,1935z"/>
		<path fill="#32495C" d="M1379.2,1926.6h4.9l4.2,12.4l4.1-12.4h4.8l-6.2,16.8l-1.1,3c-0.4,1-0.8,1.8-1.2,2.3
			c-0.4,0.5-0.8,1-1.3,1.3c-0.5,0.3-1.1,0.6-1.8,0.8c-0.7,0.2-1.5,0.3-2.4,0.3c-0.9,0-1.8-0.1-2.6-0.3l-0.4-3.6
			c0.7,0.1,1.4,0.2,2,0.2c1.1,0,1.9-0.3,2.4-0.9c0.5-0.6,0.9-1.4,1.2-2.4L1379.2,1926.6z"/>
	</g>
</g>
<g>
	<path fill="#B63724" d="M291.4,471c4-17.6,7.9-138.8,43.5-136.8c126.4,3.9,255-134.4,349.8,156.8c51.4,10.7,89.7,40.9,109.6,62.5
		c95.5,103.2-127.4,190-318.9,181.9C246.7,725.7,51.4,560.9,291.4,471L291.4,471z"/>
	<path opacity="0.65" fill="#88281D" d="M290,471.5c-103.5,39.2-125,92.4-97.6,140.8c16.8-38.5,57.7-71.2,116.8-91.9
		c-12.3-14.6-19.3-31-19.3-48.3C290,471.9,290,471.7,290,471.5L290,471.5z M682.4,484.3c-2.7,14.3-10.9,27.7-23.2,39.7
		c77.9,22.5,138.4,57.7,153.5,100.1c9.1-21.9,4.6-45.8-18.4-70.7c-19.9-21.5-58.2-51.8-109.6-62.5
		C683.9,488.7,683.1,486.5,682.4,484.3L682.4,484.3z"/>
	<path color-rendering="auto" image-rendering="auto" shape-rendering="auto" fill="#030104" d="M677.7,479.5l-1.4,6.5
		c-0.9,4.3-5.1,9.7-12.6,15.1c-7.5,5.4-18,10.9-31,15.9c-25.9,10.1-61.3,18.4-100.9,22.6c-48.5,5-103.9,4-153.2-14.7
		c-31.2-11.9-57.2-26.4-82.8-52.2l-3.7-2.2h-3.4l-1-2.5c-1.2,3.5-4.6,25.2-5.6,38.6c-0.9,12.4-0.9,19.8-0.3,26.6l1,1.6l0.2,0.4
		c9.5,16.5,43.4,37.4,76.4,51.3c25.6,10.7,63.1,15.6,107.3,18c47.6,2.5,90-2.9,128.5-12c38.5-9.1,70.2-23.4,86.8-45l0.4-0.5l6.5-8.7
		c0,0,1.9-6.9,2-15.9c0-14.6-0.7-28.5-9-37.9L677.7,479.5z"/>
	<path opacity="0.65" fill="#88281D" d="M366.7,333.3c8.5,0,34.1,3.2,68.9,21.4c43.3,22.6,45.1,30,102.6,34.2
		c0,0,18.5,1.5,30.2-10.2c11.7-11.7,5.8-35-33.1-38.2c-38.9-3.2-61.6-11.7-97.2-9.7c-35.7,1.9-79.7,3.9-79.7,3.9l11.7-0.6"/>
	<path color-rendering="auto" image-rendering="auto" shape-rendering="auto" fill="#030104" d="M521.8,300.1
		c-61.7-2.4-125.3,31.2-186.8,29.3l0.1,0c-5.8-0.3-11.1,2-15.3,5.8c-4.2,3.8-7.5,8.9-10.4,15c-5.8,12.1-9.7,27.9-12.7,44.2
		c-3,16.3-5,33.2-6.5,47c-1.4,12.7-2.3,21.9-3.1,26.2c-58.9,22.5-92.2,49.7-104.7,79.4c-12.7,30.1-2.7,61.7,21.7,89.4
		c48.9,55.3,155.7,98.8,271.1,103.7c96.5,4.1,200.6-15.6,269.4-49.7c34.4-17.1,60.2-37.7,71.4-61.8c11.2-24.1,6.5-51.6-18.2-78.3
		c-20.1-21.8-58.2-51.8-109.5-63.2c-23.6-71.6-49.3-117.7-77.1-146.2C583,312,552.6,301.3,521.8,300.1L521.8,300.1z M521.4,309.6
		c28.9,1.1,56.4,10.6,82.9,37.9c26.6,27.3,52.2,72.6,75.8,145c0.5,1.6,1.9,2.8,3.5,3.2c50.1,10.4,87.7,40.1,107.1,61
		c23,24.9,26.3,47,16.6,67.9c-9.7,20.9-33.7,40.8-67,57.3c-66.7,33.1-169.8,52.7-264.8,48.7c-113.3-4.8-218.5-48.5-264.4-100.5
		c-23-26-31.1-53-20.1-79.4c11.1-26.4,42.6-53,102-75.3c1.5-0.6,2.6-1.8,3-3.4v0c0.1-0.3,0.1-0.6,0.1-0.9c0,0,0,0,0,0
		c1.1-5.5,2-15.3,3.4-28.6c1.5-13.8,3.4-30.4,6.4-46.3c2.9-15.9,6.9-31.2,12-41.8c2.5-5.3,5.4-9.5,8.2-12c2.8-2.5,5.4-3.6,8.5-3.4
		c0,0,0.1,0,0.1,0C399.7,340.9,463.5,307.3,521.4,309.6L521.4,309.6z"/>
	<ellipse fill="#C12A23" fill-opacity="0.9922" cx="369.7" cy="350.6" rx="47.9" ry="21.6"/>
	<path color-rendering="auto" image-rendering="auto" shape-rendering="auto" fill="#030104" d="M360.2,323.8
		c-8.5,0-20.7-0.2-30.2,4.5c-8.7,4.4-13.8,10.6-13.8,10.6c-4,4.9,3.4,10.9,7.4,6c0,0,3.8-4.7,10.7-8.1c6.1-3.1,17.5-3.5,26-3.5
		c7.3,0,32.5,3,66.6,20.8c43,22.4,46.5,30.5,104.5,34.7c6.5,0.7,5.8-1.1-0.7-1.4c-50.7-4.1-58.2-12.6-99.8-39
		C395.9,326.4,369.9,323.8,360.2,323.8L360.2,323.8z"/>
	<path opacity="0.65" fill="#88281D" d="M483.6,405.5c-17.6,5-21.4,8.6-54.7,8.6s-92.1-39.4-92.1-57.7c0-18.3,39.3-17.5,67.6,0
		C483.6,405.5,505.1,399.5,483.6,405.5L483.6,405.5z"/>
	
		<linearGradient id="SVGID_1_" gradientUnits="userSpaceOnUse" x1="1302.9019" y1="2104.4709" x2="1292.4886" y2="2053.9675" gradientTransform="matrix(1.1918 0 0 -1.1918 -1004.7189 2783.3301)">
		<stop  offset="0" style="stop-color:#FFFFFF"/>
		<stop  offset="1" style="stop-color:#FFFFFF;stop-opacity:0"/>
	</linearGradient>
	<path fill="url(#SVGID_1_)" d="M520.8,313.4c-25.6,0.1-37.4,0.8-50.3,10.7c23-2.8,35.3,0.4,61.1,6.9c30.7,7.6,50.3,13.3,67.9,22.5
		c-6.3-15.9-38.1-34.9-65.6-39.1C529.4,313.7,525.1,313.3,520.8,313.4L520.8,313.4z"/>
</g>
<g>
	<path fill="#E2AB54" d="M1201.1,471c4-17.6,7.9-138.8,43.5-136.8c126.4,3.9,255-134.4,349.8,156.8c51.4,10.7,89.7,40.9,109.6,62.5
		c95.5,103.2-127.4,190-318.9,181.9C1156.4,725.7,961.1,560.9,1201.1,471L1201.1,471z"/>
	<path fill="#DC9A2A" d="M1199.7,471.5c-103.5,39.2-125,92.4-97.6,140.8c16.8-38.5,57.7-71.2,116.8-91.9
		c-12.3-14.6-19.3-31-19.3-48.3C1199.7,471.9,1199.7,471.7,1199.7,471.5L1199.7,471.5z M1592.1,484.3c-2.7,14.3-10.9,27.7-23.2,39.7
		c77.9,22.5,138.4,57.7,153.5,100.1c9.1-21.9,4.6-45.8-18.4-70.7c-19.9-21.5-58.2-51.8-109.6-62.5
		C1593.6,488.7,1592.8,486.5,1592.1,484.3L1592.1,484.3z"/>
	<path color-rendering="auto" image-rendering="auto" shape-rendering="auto" fill="#030104" d="M1587.4,479.5l-1.4,6.5
		c-0.9,4.3-5.1,9.7-12.6,15.1c-7.5,5.4-18,10.9-31,15.9c-25.9,10.1-61.3,18.4-100.9,22.6c-48.5,5-103.9,4-153.2-14.7
		c-31.2-11.9-57.2-26.4-82.8-52.2l-3.7-2.2h-3.4l-1-2.5c-1.2,3.5-4.6,25.2-5.6,38.6c-0.9,12.4-0.9,19.8-0.3,26.6l1,1.6l0.2,0.4
		c9.5,16.5,43.4,37.4,76.4,51.3c25.6,10.7,63.1,15.6,107.3,18c47.6,2.5,90-2.9,128.5-12c38.5-9.1,70.2-23.4,86.8-45l0.4-0.5l6.5-8.7
		c0,0,1.9-6.9,2-15.9c0-14.6-0.7-28.5-9-37.9L1587.4,479.5z"/>
	<path fill="#C3852C" d="M1276.4,333.3c8.5,0,34.1,3.2,68.9,21.4c43.3,22.6,45.1,30,102.6,34.2c0,0,18.5,1.5,30.2-10.2
		c11.7-11.7,5.8-35-33.1-38.2c-38.9-3.2-61.6-11.7-97.2-9.7c-35.7,1.9-79.7,3.9-79.7,3.9l11.7-0.6"/>
	<path color-rendering="auto" image-rendering="auto" shape-rendering="auto" fill="#030104" d="M1431.5,300.1
		c-61.7-2.4-125.3,31.2-186.8,29.3l0.1,0c-5.8-0.3-11.1,2-15.3,5.8c-4.2,3.8-7.5,8.9-10.4,15c-5.8,12.1-9.7,27.9-12.7,44.2
		c-3,16.3-5,33.2-6.5,47c-1.4,12.7-2.3,21.9-3.1,26.2c-58.9,22.5-92.2,49.7-104.7,79.4c-12.7,30.1-2.7,61.7,21.7,89.4
		c48.9,55.3,155.7,98.8,271.1,103.7c96.5,4.1,200.6-15.6,269.4-49.7c34.4-17.1,60.2-37.7,71.4-61.8c11.2-24.1,6.5-51.6-18.2-78.3
		c-20.1-21.8-58.2-51.8-109.5-63.2c-23.6-71.6-49.3-117.7-77.1-146.2C1492.8,312,1462.4,301.3,1431.5,300.1L1431.5,300.1z
		 M1431.1,309.6c28.9,1.1,56.4,10.6,82.9,37.9c26.6,27.3,52.2,72.6,75.8,145c0.5,1.6,1.9,2.8,3.5,3.2c50.1,10.4,87.7,40.1,107.1,61
		c23,24.9,26.3,47,16.6,67.9c-9.7,20.9-33.7,40.8-67,57.3c-66.7,33.1-169.8,52.7-264.8,48.7c-113.3-4.8-218.5-48.5-264.4-100.5
		c-23-26-31.1-53-20.1-79.4c11.1-26.4,42.6-53,102-75.3c1.5-0.6,2.6-1.8,3-3.4v0c0.1-0.3,0.1-0.6,0.1-0.9c0,0,0,0,0,0
		c1.1-5.5,2-15.3,3.4-28.6c1.5-13.8,3.4-30.4,6.4-46.3c2.9-15.9,6.9-31.2,12-41.8c2.5-5.3,5.4-9.5,8.2-12c2.8-2.5,5.4-3.6,8.5-3.4
		c0,0,0.1,0,0.1,0C1309.4,340.9,1373.3,307.3,1431.1,309.6L1431.1,309.6z"/>
	<ellipse fill="#DC9A2A" cx="1279.4" cy="350.6" rx="47.9" ry="21.6"/>
	<path color-rendering="auto" image-rendering="auto" shape-rendering="auto" fill="#030104" d="M1269.9,323.8
		c-8.5,0-20.7-0.2-30.2,4.5c-8.7,4.4-13.8,10.6-13.8,10.6c-4,4.9,3.4,10.9,7.4,6c0,0,3.8-4.7,10.7-8.1c6.1-3.1,17.5-3.5,26-3.5
		c7.3,0,32.5,3,66.6,20.8c43,22.4,46.5,30.5,104.5,34.7c6.5,0.7,5.8-1.1-0.7-1.4c-50.7-4.1-58.2-12.6-99.8-39
		C1305.6,326.4,1279.6,323.8,1269.9,323.8L1269.9,323.8z"/>
	<path fill="#DC9A2A" d="M1393.3,405.5c-17.6,5-21.4,8.6-54.7,8.6c-33.2,0-92.1-39.4-92.1-57.7c0-18.3,39.3-17.5,67.6,0
		C1393.3,405.5,1414.8,399.5,1393.3,405.5L1393.3,405.5z"/>
	
		<linearGradient id="SVGID_2_" gradientUnits="userSpaceOnUse" x1="2066.2117" y1="2104.4709" x2="2055.7986" y2="2053.9675" gradientTransform="matrix(1.1918 0 0 -1.1918 -1004.7189 2783.3301)">
		<stop  offset="0" style="stop-color:#FFFFFF"/>
		<stop  offset="1" style="stop-color:#FFFFFF;stop-opacity:0"/>
	</linearGradient>
	<path fill="url(#SVGID_2_)" d="M1430.5,313.4c-25.6,0.1-37.4,0.8-50.3,10.7c23-2.8,35.3,0.4,61.1,6.9c30.7,7.6,50.3,13.3,67.9,22.5
		c-6.3-15.9-38.1-34.9-65.6-39.1C1439.1,313.7,1434.8,313.3,1430.5,313.4L1430.5,313.4z"/>
</g>
<g>
	<path fill="#BC9E6C" d="M2110.8,471c4-17.6,7.9-138.8,43.5-136.8c126.4,3.9,255-134.4,349.8,156.8c51.4,10.7,89.7,40.9,109.6,62.5
		c95.5,103.2-127.4,190-318.9,181.9C2066.1,725.7,1870.8,560.9,2110.8,471L2110.8,471z"/>
	<path fill="#967D58" d="M2109.4,471.5c-103.5,39.2-125,92.4-97.6,140.8c16.8-38.5,57.7-71.2,116.8-91.9
		c-12.3-14.6-19.3-31-19.3-48.3C2109.4,471.9,2109.4,471.7,2109.4,471.5L2109.4,471.5z M2501.8,484.3c-2.7,14.3-10.9,27.7-23.2,39.7
		c77.9,22.5,138.4,57.7,153.5,100.1c9.1-21.9,4.6-45.8-18.4-70.7c-19.9-21.5-58.2-51.8-109.6-62.5
		C2503.3,488.7,2502.6,486.5,2501.8,484.3L2501.8,484.3z"/>
	<path color-rendering="auto" image-rendering="auto" shape-rendering="auto" fill="#030104" d="M2497.1,479.5l-1.4,6.5
		c-0.9,4.3-5.1,9.7-12.6,15.1s-18,10.9-31,15.9c-25.9,10.1-61.3,18.4-100.9,22.6c-48.5,5-103.9,4-153.2-14.7
		c-31.2-11.9-57.2-26.4-82.8-52.2l-3.7-2.2h-3.4l-1-2.5c-1.2,3.5-4.6,25.2-5.6,38.6c-0.9,12.4-0.9,19.8-0.3,26.6l1,1.6l0.2,0.4
		c9.5,16.5,43.4,37.4,76.4,51.3c25.6,10.7,63.1,15.6,107.3,18c47.6,2.5,90-2.9,128.5-12c38.5-9.1,70.2-23.4,86.8-45l0.4-0.5l6.5-8.7
		c0,0,1.9-6.9,2-15.9c0-14.6-0.7-28.5-9-37.9L2497.1,479.5z"/>
	<path fill="#967D58" d="M2186.1,333.3c8.5,0,34.1,3.2,68.9,21.4c43.3,22.6,45.1,30,102.6,34.2c0,0,18.5,1.5,30.2-10.2
		c11.7-11.7,5.8-35-33.1-38.2c-38.9-3.2-61.6-11.7-97.2-9.7c-35.7,1.9-79.7,3.9-79.7,3.9l11.7-0.6"/>
	<path color-rendering="auto" image-rendering="auto" shape-rendering="auto" fill="#030104" d="M2341.2,300.1
		c-61.7-2.4-125.3,31.2-186.8,29.3l0.1,0c-5.8-0.3-11.1,2-15.3,5.8c-4.2,3.8-7.5,8.9-10.4,15c-5.8,12.1-9.7,27.9-12.7,44.2
		c-3,16.3-5,33.2-6.5,47c-1.4,12.7-2.3,21.9-3.1,26.2c-58.9,22.5-92.2,49.7-104.7,79.4c-12.7,30.1-2.7,61.7,21.7,89.4
		c48.9,55.3,155.7,98.8,271.1,103.7c96.5,4.1,200.6-15.6,269.4-49.7c34.4-17.1,60.2-37.7,71.4-61.8c11.2-24.1,6.5-51.6-18.2-78.3
		c-20.1-21.8-58.2-51.8-109.5-63.2c-23.6-71.6-49.3-117.7-77.1-146.2C2402.5,312,2372.1,301.3,2341.2,300.1L2341.2,300.1z
		 M2340.9,309.6c28.9,1.1,56.4,10.6,82.9,37.9c26.6,27.3,52.2,72.6,75.8,145c0.5,1.6,1.9,2.8,3.5,3.2c50.1,10.4,87.7,40.1,107.1,61
		c23,24.9,26.3,47,16.6,67.9c-9.7,20.9-33.7,40.8-67,57.3c-66.7,33.1-169.8,52.7-264.8,48.7c-113.3-4.8-218.5-48.5-264.4-100.5
		c-23-26-31.1-53-20.1-79.4c11.1-26.4,42.6-53,102-75.3c1.5-0.6,2.6-1.8,3-3.4v0c0.1-0.3,0.1-0.6,0.1-0.9c0,0,0,0,0,0
		c1.1-5.5,2-15.3,3.4-28.6c1.5-13.8,3.4-30.4,6.4-46.3c2.9-15.9,6.9-31.2,12-41.8c2.5-5.3,5.4-9.5,8.2-12c2.8-2.5,5.4-3.6,8.5-3.4
		c0,0,0.1,0,0.1,0C2219.1,340.9,2283,307.3,2340.9,309.6L2340.9,309.6z"/>
	<ellipse fill="#BC9E6C" cx="2189.2" cy="350.6" rx="47.9" ry="21.6"/>
	<path color-rendering="auto" image-rendering="auto" shape-rendering="auto" fill="#030104" d="M2179.6,323.8
		c-8.5,0-20.7-0.2-30.2,4.5c-8.7,4.4-13.8,10.6-13.8,10.6c-4,4.9,3.4,10.9,7.4,6c0,0,3.8-4.7,10.7-8.1c6.1-3.1,17.5-3.5,26-3.5
		c7.3,0,32.5,3,66.6,20.8c43,22.4,46.5,30.5,104.5,34.7c6.5,0.7,5.8-1.1-0.7-1.4c-50.7-4.1-58.2-12.6-99.8-39
		C2215.3,326.4,2189.3,323.8,2179.6,323.8L2179.6,323.8z"/>
	<path fill="#967D58" d="M2303,405.5c-17.6,5-21.4,8.6-54.7,8.6s-92.1-39.4-92.1-57.7c0-18.3,39.3-17.5,67.6,0
		C2303,405.5,2324.5,399.5,2303,405.5L2303,405.5z"/>
	
		<linearGradient id="SVGID_3_" gradientUnits="userSpaceOnUse" x1="2829.5215" y1="2104.4709" x2="2819.1084" y2="2053.9675" gradientTransform="matrix(1.1918 0 0 -1.1918 -1004.7189 2783.3301)">
		<stop  offset="0" style="stop-color:#FFFFFF"/>
		<stop  offset="1" style="stop-color:#FFFFFF;stop-opacity:0"/>
	</linearGradient>
	<path fill="url(#SVGID_3_)" d="M2340.2,313.4c-25.6,0.1-37.4,0.8-50.3,10.7c23-2.8,35.3,0.4,61.1,6.9c30.7,7.6,50.3,13.3,67.9,22.5
		c-6.3-15.9-38.1-34.9-65.6-39.1C2348.8,313.7,2344.5,313.3,2340.2,313.4L2340.2,313.4z"/>
</g>
<g>
	<path fill="#BC9E6C" d="M2282.9,1678.8c-142.3-21-212.6-126.8-212.6-126.8c-129.8-183,62.1-246.9,62.1-246.9
		c7.6-24.8,24.6-65.8,24.6-65.8c27.6-53.5,96-55.6,112.2-56.1c8.2,0,25.5,4.4,40.5,4.4c14.1,0,33.2-4.4,40.5-4.4
		c16.2,0.5,78.6,2.6,106.3,56.1c0,0,22.9,41,30.6,65.8c0,0,191.9,63.9,62.1,246.9c0,0-68.7,104.8-211,125.8
		C2338.1,1677.9,2308.2,1682.1,2282.9,1678.8z"/>
	<path fill="#967D58" d="M2132,1310.9c0,0-67.7,19.5-97.2,86.8c0,0,25.4-38.7,86.1-42C2121,1355.8,2128.2,1325.7,2132,1310.9
		L2132,1310.9z"/>
	<path fill="#967D58" d="M2488,1309c0,0,70.1,21.4,98.9,89c0,0-24.8-38.8-84.3-42C2502.6,1355.9,2494.7,1324,2488,1309L2488,1309z"
		/>
	<path fill="#967D58" d="M2226.6,1257.4c0,0-89.4-45,61.6-65.9C2288.3,1191.6,2196.9,1209,2226.6,1257.4z"/>
	<path fill="#967D58" d="M2392.5,1257.4c0,0,89.4-45-61.6-65.9C2330.8,1191.6,2422.2,1209,2392.5,1257.4z"/>
	<path fill="#967D58" d="M2454.3,1244.1c0,0,17.6,35.3-1.1,81.2c0,0-21.9,49-9.3,62.8c0,0,20.9,21.4,29.3-31.9
		C2473.2,1356.2,2485.2,1295.4,2454.3,1244.1z"/>
	<path fill="#967D58" d="M2163.8,1243.5c0,0-17.6,35.3,1.1,81.2c0,0,21.9,49,9.3,62.8c0,0-20.9,21.4-29.3-31.9
		C2144.9,1355.6,2132.9,1294.8,2163.8,1243.5L2163.8,1243.5z"/>
	<path fill="#967D58" d="M2469,1402.3c0,0,25.2-25.2,26.1-65.2c0,0-10.3-47.5-42.9-103c0,0,30.8,61.5,36.4,104.4
		C2488.6,1338.4,2491.9,1365.5,2469,1402.3z"/>
	<path fill="#967D58" d="M2149.7,1395.8c0,0-21.1-24.7-21.8-64c0,0,8.6-46.6,35.9-101c0,0-25.7,60.3-30.4,102.4
		C2133.3,1333.1,2130.6,1359.7,2149.7,1395.8z"/>
	<path fill="#967D58" d="M2214,1255.8c0,0,97.3,57.7,191.4-3.2C2405.4,1252.5,2321.1,1325.8,2214,1255.8z"/>
	<path fill="#030104" d="M2126.5,1336.9c0,0,2.6,118.7,172.6,118.7h22.1c0,0,171.3,2.6,175.8-120c0,0,49.3,136.3-86.9,185.6
		c0,0-110.3,44.8-214.1-5.2C2196,1516,2083.7,1468,2126.5,1336.9L2126.5,1336.9z"/>
</g>
<g>
	<path fill="#E2AB54" d="M1373.2,1678.8c-142.3-21-212.6-126.8-212.6-126.8c-129.8-183,62.1-246.9,62.1-246.9
		c7.6-24.8,24.6-65.8,24.6-65.8c27.6-53.5,96-55.6,112.2-56.1c8.2,0,25.5,4.4,40.5,4.4c14.1,0,33.2-4.4,40.5-4.4
		c16.2,0.5,78.6,2.6,106.3,56.1c0,0,22.9,41,30.6,65.8c0,0,191.9,63.9,62.1,246.9c0,0-68.7,104.8-211,125.8
		C1428.4,1677.9,1398.5,1682.1,1373.2,1678.8z"/>
	<path fill="#DC9A2A" d="M1222.3,1310.9c0,0-67.7,19.5-97.2,86.8c0,0,25.4-38.7,86.1-42C1211.2,1355.8,1218.4,1325.7,1222.3,1310.9
		L1222.3,1310.9z"/>
	<path fill="#DC9A2A" d="M1578.2,1309c0,0,70.1,21.4,98.9,89c0,0-24.8-38.8-84.3-42C1592.9,1355.9,1585,1324,1578.2,1309
		L1578.2,1309z"/>
	<path fill="#DC9A2A" d="M1316.9,1257.4c0,0-89.4-45,61.6-65.9C1378.5,1191.6,1287.2,1209,1316.9,1257.4z"/>
	<path fill="#DC9A2A" d="M1482.8,1257.4c0,0,89.4-45-61.6-65.9C1421.1,1191.6,1512.5,1209,1482.8,1257.4z"/>
	<path fill="#DC9A2A" d="M1544.6,1244.1c0,0,17.6,35.3-1.1,81.2c0,0-21.9,49-9.3,62.8c0,0,20.9,21.4,29.3-31.9
		C1563.5,1356.2,1575.5,1295.4,1544.6,1244.1z"/>
	<path fill="#DC9A2A" d="M1254.1,1243.5c0,0-17.6,35.3,1.1,81.2c0,0,21.9,49,9.3,62.8c0,0-20.9,21.4-29.3-31.9
		C1235.2,1355.6,1223.2,1294.8,1254.1,1243.5L1254.1,1243.5z"/>
	
		<linearGradient id="SVGID_4_" gradientUnits="userSpaceOnUse" x1="493.9142" y1="1508.3627" x2="487.6388" y2="1504.968" gradientTransform="matrix(9.0598 0 0 -9.0598 -2872.0596 14955.5605)">
		<stop  offset="0" style="stop-color:#FFFFFF"/>
		<stop  offset="1" style="stop-color:#C23030"/>
	</linearGradient>
	<path fill="url(#SVGID_4_)" d="M1559.3,1402.3c0,0,25.2-25.2,26.1-65.2c0,0-10.3-47.5-42.9-103c0,0,30.8,61.5,36.4,104.4
		C1578.9,1338.4,1582.2,1365.5,1559.3,1402.3z"/>
	
		<linearGradient id="SVGID_5_" gradientUnits="userSpaceOnUse" x1="-7217.7051" y1="1508.9268" x2="-7224.0347" y2="1505.501" gradientTransform="matrix(-9.0598 0 0 -9.0598 -64195.6953 14955.5605)">
		<stop  offset="0" style="stop-color:#FFFFFF"/>
		<stop  offset="1" style="stop-color:#C23030"/>
	</linearGradient>
	<path fill="url(#SVGID_5_)" d="M1240,1395.8c0,0-21.1-24.7-21.8-64c0,0,8.6-46.6,35.9-101c0,0-25.7,60.3-30.4,102.4
		C1223.6,1333.1,1220.9,1359.7,1240,1395.8z"/>
	<path fill="#DC9A2A" d="M1304.3,1255.8c0,0,97.3,57.7,191.4-3.2C1495.7,1252.5,1411.4,1325.8,1304.3,1255.8z"/>
	<path fill="#030104" d="M1216.8,1336.9c0,0,2.6,118.7,172.6,118.7h22.1c0,0,171.3,2.6,175.8-120c0,0,49.3,136.3-86.9,185.6
		c0,0-110.3,44.8-214.1-5.2C1286.3,1516,1174,1468,1216.8,1336.9L1216.8,1336.9z"/>
</g>
<g>
	<path fill="#B63724" d="M463.5,1678.8c-142.3-21-212.6-126.8-212.6-126.8c-129.8-183,62.1-246.9,62.1-246.9
		c7.6-24.8,24.6-65.8,24.6-65.8c27.6-53.5,96-55.6,112.2-56.1c8.2,0,25.5,4.4,40.5,4.4c14.1,0,33.2-4.4,40.5-4.4
		c16.2,0.5,78.6,2.6,106.3,56.1c0,0,22.9,41,30.6,65.8c0,0,191.9,63.9,62.1,246.9c0,0-68.7,104.8-211,125.8
		C518.7,1677.9,488.8,1682.1,463.5,1678.8z"/>
	<path opacity="0.65" fill="#88281D" d="M312.6,1310.9c0,0-67.7,19.5-97.2,86.8c0,0,25.4-38.7,86.1-42
		C301.5,1355.8,308.7,1325.7,312.6,1310.9L312.6,1310.9z"/>
	<path opacity="0.65" fill="#88281D" d="M668.5,1309c0,0,70.1,21.4,98.9,89c0,0-24.8-38.8-84.3-42
		C683.2,1355.9,675.3,1324,668.5,1309L668.5,1309z"/>
	<path opacity="0.65" fill="#88281D" d="M407.2,1257.4c0,0-89.4-45,61.6-65.9C468.8,1191.6,377.5,1209,407.2,1257.4z"/>
	<path opacity="0.65" fill="#88281D" d="M573.1,1257.4c0,0,89.4-45-61.6-65.9C511.4,1191.6,602.8,1209,573.1,1257.4z"/>
	<path opacity="0.65" fill="#88281D" d="M634.9,1244.1c0,0,17.6,35.3-1.1,81.2c0,0-21.9,49-9.3,62.8c0,0,20.9,21.4,29.3-31.9
		C653.7,1356.2,665.8,1295.4,634.9,1244.1z"/>
	<path opacity="0.65" fill="#88281D" d="M344.4,1243.5c0,0-17.6,35.3,1.1,81.2c0,0,21.9,49,9.3,62.8c0,0-20.9,21.4-29.3-31.9
		C325.5,1355.6,313.4,1294.8,344.4,1243.5L344.4,1243.5z"/>
	<path opacity="0.65" fill="#88281D" d="M649.6,1402.3c0,0,25.2-25.2,26.1-65.2c0,0-10.3-47.5-42.9-103c0,0,30.8,61.5,36.4,104.4
		C669.2,1338.4,672.4,1365.5,649.6,1402.3z"/>
	<path opacity="0.65" fill="#88281D" d="M330.3,1395.8c0,0-21.1-24.7-21.8-64c0,0,8.6-46.6,35.9-101c0,0-25.7,60.3-30.4,102.4
		C313.9,1333.1,311.2,1359.7,330.3,1395.8z"/>
	<path opacity="0.65" fill="#88281D" d="M394.6,1255.8c0,0,97.3,57.7,191.4-3.2C586,1252.5,501.7,1325.8,394.6,1255.8z"/>
	<path fill="#030104" d="M307.1,1336.9c0,0,2.6,118.7,172.6,118.7h22.1c0,0,171.3,2.6,175.8-120c0,0,49.3,136.3-86.9,185.6
		c0,0-110.3,44.8-214.1-5.2C376.5,1516,264.3,1468,307.1,1336.9L307.1,1336.9z"/>
</g>
</svg>
